# xmcd
#
# Track frame offsets:
# 150
# 16165
# 31649
# 58210
# 73222
# 91617
# 109605
# 126303
# 145173
# 160952
#
# Disc length: 2444 seconds
#
#
# Revision: 0
# Processed by: cddbd v1.5.2PL0 Copyright (c) Steve Scherf et al.
# Submitted via: FreeRIP 2.50 
#
DISCID=7f098a0a
DTITLE=Cody McCarver - Peace, Love and Coondogs
DYEAR=2006
DGENRE=Country
TTITLE0=Chosen One
TTITLE1=Red Flag
TTITLE2=Sunset Boulevard
TTITLE3=Look What You've Done
TTITLE4=Country Bad Ass
TTITLE5=Should've Been Me
TTITLE6=Redneck Love
TTITLE7=Tonight's The Night
TTITLE8=Hard To Be Honest
TTITLE9=The Cure
EXTD=
EXTT0=
EXTT1=
EXTT2=
EXTT3=
EXTT4=
EXTT5=
EXTT6=
EXTT7=
EXTT8=
EXTT9=
PLAYORDER=
